<svg xmlns="http://www.w3.org/2000/svg" xmlns:xlink="http://www.w3.org/1999/xlink" width="17.66666603088379" height="11.21212100982666" version="1.1"><rect id="backgroundrect" width="100%" height="100%" x="0" y="0" fill="none" stroke="none" class="" style=""/>
    <!-- Generator: Sketch 49.1 (51147) - http://www.bohemiancoding.com/sketch -->
    <desc>Created with Sketch.</desc>
    <defs>
        <polygon id="path-1" points="0 0 15 0 15 11 0 11"/>
    </defs>
    
<g class="currentLayer" style=""><title>Layer 1</title><g id="Page-1" stroke="none" stroke-width="1" fill="#3aaab2" fill-rule="evenodd" class="selected" fill-opacity="1">
        <g id="Mobile-Vendor-Landing-Page" fill="#3aaab2" stroke="none">
            <g id="Group" fill="#3aaab2" stroke="none">
                <g id="Page-1" fill="#3aaab2" stroke="none">
                    <mask id="mask-2" fill="white" transform="translate(0,7) translate(46,958) translate(-46,-964) ">
                        <use xlink:href="#path-1" id="svg_1"/>
                    </mask>
                    <g id="Clip-2" fill="#3aaab2" stroke="none"/>
                    <path d="M14.847898100000002,0.15879379299997254 C14.644806799999998,-0.052660629999991215 14.315227999999998,-0.05293091999999433 14.1117897,0.15798293299997113 L4.8972904700000015,9.70892974000003 L0.8882103389999969,5.553539450000017 C0.6846852370000038,5.342625600000019 0.3551064400000002,5.3428958900000225 0.15210186299999864,5.554350310000018 C-0.05098946799999738,5.765534450000018 -0.05064245159999815,6.107897819999948 0.1527958960000007,6.3188116699999455 L4.516092979999996,10.841431710000052 C4.617768779999999,10.946753489999992 4.750762800000004,10.999369330000036 4.883843579999997,10.999369330000036 C4.887226990000002,10.999369330000036 4.890523649999999,10.998468369999955 4.893907060000004,10.998468369999955 C4.899285810000002,10.998558470000035 4.904664570000001,11 4.910130070000001,11 C5.0431241,11 5.176204869999999,10.947384159999956 5.277793920000001,10.842062370000008 L14.847204099999999,0.9232551469000327 C15.050642500000002,0.7124313909999955 15.0509895,0.3700680270000021 14.847898100000002,0.15879379299997254 " id="Fill-1" fill="#3aaab2" mask="url(#mask-2)" stroke="none"/>
                </g>
            </g>
        </g>
    </g></g></svg>